<svg width="26" height="30" viewBox="0 0 26 30" fill="none" xmlns="http://www.w3.org/2000/svg">
<path d="M25.2425 21.8841C24.7913 23.3074 24.0684 24.8211 23.0197 26.3892C21.4648 28.7502 19.9087 29.9224 18.3697 29.9239C17.7541 29.9244 16.921 29.727 15.8342 29.3499C14.7656 28.9546 13.842 28.7754 13.0997 28.7761C12.3755 28.7767 11.5065 28.9757 10.5292 29.3729C9.53371 29.7881 8.73724 29.987 8.1398 29.9875C6.2749 29.9893 4.48088 28.4239 2.68542 25.3277C0.926187 22.2313 0.0181034 19.2242 0.0153182 16.2702C0.0127199 13.5144 0.698689 11.2803 2.05491 9.53192C3.41126 7.80158 5.11236 6.9354 7.19464 6.93345C8.08183 6.93263 9.13217 7.11175 10.4 7.47077C11.6496 7.82982 12.4827 8.00914 12.8992 8.00875C13.4242 8.00826 14.2932 7.80927 15.4878 7.39393C16.6824 6.99656 17.7324 6.77943 18.6196 6.7786C20.0681 6.77725 21.3539 7.1723 22.4772 7.94579C23.1113 8.37749 23.7456 8.9893 24.362 9.74519C23.4212 10.5386 22.7338 11.2417 22.2999 11.8725C21.5223 12.9901 21.1252 14.2332 21.1264 15.6021C21.1278 17.0791 21.5455 18.4294 22.3795 19.6175C23.2135 20.8056 24.1739 21.5611 25.2424 21.8844L25.2425 21.8841ZM18.4148 0.762809C18.4155 1.5013 18.2352 2.33002 17.892 3.2129C17.5307 4.11376 16.9702 4.94284 16.2105 5.70012C15.5593 6.34917 14.9078 6.78207 14.2563 6.99883C13.84 7.12532 13.2245 7.23391 12.3735 7.30679C12.4081 5.52357 12.8774 3.97416 13.7814 2.67643C14.6854 1.3787 16.2056 0.494716 18.3055 0.00644739C18.3419 0.168551 18.3782 0.294612 18.3964 0.402615C18.3965 0.52871 18.4147 0.636714 18.4148 0.762809V0.762809Z" fill="#E4B498"/>
</svg>
