<svg width="31" height="31" viewBox="0 0 31 31" fill="none" xmlns="http://www.w3.org/2000/svg">
<path d="M22.1172 22.0919C22.1167 21.5455 21.9008 21.3311 21.5281 21.0973C18.9973 19.5971 16.0555 18.8585 12.7615 18.8615C10.84 18.8633 8.9971 19.1187 7.13479 19.5302C6.68397 19.6282 6.31168 19.9212 6.31227 20.5456C6.31273 21.0334 6.68574 21.5014 7.27392 21.5008C7.45042 21.5007 7.76398 21.4028 7.99922 21.3441C9.52829 21.0304 11.1359 20.8143 12.7633 20.8128C15.6455 20.8101 18.3717 21.5101 20.5493 22.8153C20.7847 22.9517 20.9416 23.0296 21.1966 23.0294C21.6868 23.0289 22.1177 22.6383 22.1172 22.0919ZM23.9955 17.8949C23.995 17.3681 23.7986 16.9975 23.3082 16.7053C20.3066 14.9325 16.5018 13.9603 12.5608 13.964C10.0315 13.9664 8.30636 14.3192 6.62062 14.7891C5.99336 14.9653 5.68 15.3949 5.68061 16.0387C5.68122 16.6826 6.2111 17.2091 6.85819 17.2085C7.13272 17.2082 7.28947 17.13 7.58349 17.0517C8.95568 16.6797 10.6024 16.4049 12.5043 16.4031C16.2297 16.3997 19.6227 17.3721 22.0749 18.8138C22.2907 18.9307 22.5065 19.067 22.8203 19.0667C23.4869 19.0661 23.9962 18.5388 23.9956 17.8948L23.9955 17.8949ZM26.1086 13.0537C26.1079 12.3318 25.7938 11.9613 25.3231 11.6886C21.9292 9.72099 17.2814 8.80815 12.8502 8.8123C10.2423 8.81474 7.85054 9.10965 5.7139 9.73604C5.16499 9.89262 4.65572 10.3614 4.65649 11.1809C4.65724 11.981 5.26569 12.6048 6.06961 12.604C6.3637 12.6038 6.63814 12.506 6.8537 12.4472C8.75514 11.9186 10.8137 11.7216 12.8725 11.7197C16.9507 11.7158 21.1868 12.6095 23.9137 14.2265C24.1884 14.3823 24.3845 14.4602 24.6982 14.4599C25.4433 14.4592 26.1094 13.8733 26.1086 13.0536L26.1086 13.0537ZM30.1308 15.9574C30.1386 24.2308 23.4001 30.9495 15.0866 30.9572C6.77313 30.965 0.0219213 24.2589 0.0141238 15.9855C0.00632626 7.71213 6.74488 0.993448 15.0584 0.985674C23.3718 0.977899 30.123 7.68396 30.1308 15.9574V15.9574Z" fill="#E4B498"/>
</svg>
