<svg width="17" height="21" viewBox="0 0 17 21" fill="none" xmlns="http://www.w3.org/2000/svg">
<path d="M9.35238 4.19377C9.21535 4.23497 9.02906 4.27562 8.78565 4.31165C8.88103 3.45296 9.15502 2.70803 9.59801 2.07151C10.0333 1.446 10.7441 0.959152 11.7734 0.638213C11.7551 1.02331 11.6538 1.46819 11.4629 1.96037C11.2498 2.49132 10.9167 2.98784 10.4539 3.44962C10.0592 3.84334 9.69096 4.07966 9.35238 4.19377ZM8.59991 5.84414C9.03997 5.84373 9.68681 5.68527 10.4863 5.40722C11.2558 5.15126 11.8976 5.02375 12.4135 5.02327C13.282 5.02246 14.0393 5.25768 14.7011 5.71382L14.7032 5.71531C14.9745 5.90014 15.2545 6.14753 15.5376 6.45371C15.0786 6.86964 14.7135 7.26272 14.4553 7.63816C13.88 8.46612 13.5833 9.39477 13.5843 10.4116C13.5853 11.4965 13.8936 12.4983 14.5103 13.3778C14.9943 14.0678 15.5576 14.5842 16.1998 14.8933C15.9124 15.6662 15.4973 16.4836 14.9307 17.3316L14.9288 17.3346C13.9114 18.8809 13.0042 19.4674 12.246 19.4681C11.9251 19.4684 11.4379 19.3618 10.7249 19.1143C9.9767 18.8378 9.3023 18.7016 8.73266 18.7021C8.16438 18.7027 7.51911 18.8574 6.83109 19.1373L6.83108 19.1372L6.82688 19.139C6.18719 19.406 5.72764 19.5103 5.42608 19.5106C4.48181 19.5114 3.41478 18.707 2.22399 16.6522C1.08397 14.6432 0.51198 12.7216 0.510222 10.8565C0.508569 9.10365 0.942914 7.72837 1.7644 6.66782C2.58101 5.62554 3.57397 5.12774 4.7969 5.12659C5.32424 5.1261 5.97479 5.23321 6.79599 5.46592C7.21802 5.58728 7.57668 5.68031 7.86935 5.74337C8.1536 5.80462 8.40513 5.84433 8.59991 5.84414Z" stroke="#E4B498"/>
</svg>
