<svg width="19" height="12" viewBox="0 0 19 12" fill="none" xmlns="http://www.w3.org/2000/svg">
<path fill-rule="evenodd" clip-rule="evenodd" d="M0.665311 1.97665C3.58641 0.954265 11.0463 -0.125728 17.3618 3.73372C17.5974 3.87771 17.9051 3.80343 18.0491 3.5678C18.1931 3.33217 18.1188 3.02443 17.8832 2.88043C11.2217 -1.19048 3.4217 -0.0475675 0.334961 1.03279C0.0743218 1.12402 -0.0630167 1.40926 0.0282071 1.6699C0.119431 1.93054 0.404672 2.06787 0.665311 1.97665ZM15.1116 7.33961C9.87805 4.19945 3.89092 5.15924 1.57621 6.02726C1.31765 6.12422 1.02945 5.99322 0.932485 5.73466C0.835525 5.4761 0.966528 5.18789 1.22509 5.09093C3.71665 4.15659 10.0456 3.1338 15.6261 6.48211C15.8629 6.62419 15.9397 6.93132 15.7976 7.16811C15.6556 7.4049 15.3484 7.48168 15.1116 7.33961ZM7.14088 8.9767C4.9818 8.90729 3.08067 9.28135 2.00938 9.63845C1.74741 9.72577 1.46425 9.58419 1.37693 9.32222C1.2896 9.06025 1.43118 8.77709 1.69315 8.68976C2.8748 8.29588 4.8938 7.90394 7.17301 7.97722C9.45408 8.05055 12.0316 8.59127 14.2945 10.0998C14.5243 10.253 14.5864 10.5635 14.4332 10.7932C14.28 11.023 13.9696 11.0851 13.7398 10.9319C11.677 9.55671 9.29811 9.04605 7.14088 8.9767Z" fill="#E4B498"/>
</svg>
