<svg width="23" height="19" viewBox="0 0 23 19" fill="none" xmlns="http://www.w3.org/2000/svg">
<path d="M18.757 2.03539C19.3157 1.92768 19.8624 1.76878 20.387 1.5647C20.0849 1.94393 19.7145 2.26853 19.2929 2.52076L19.6036 3.44691C19.9654 3.4076 20.3223 3.34555 20.672 3.26401C20.337 3.60045 19.9761 3.91129 19.5933 4.19139L19.3699 4.35483L19.3899 4.63091C19.4026 4.8071 19.403 4.98621 19.4031 5.18597C19.4086 10.9755 15.0111 17.6135 6.99144 17.621C5.22493 17.6227 3.54888 17.2593 2.03117 16.5999C3.91356 16.4214 5.64038 15.7042 7.05797 14.591L8.15932 13.7261L6.75925 13.6979C5.26033 13.6676 3.96695 12.8376 3.28898 11.6209C3.31178 11.6212 3.33468 11.6213 3.35768 11.6213C3.8105 11.6208 4.26043 11.5581 4.67834 11.4493L4.65125 10.4753C3.03754 10.1498 1.77538 8.87524 1.4745 7.25439C1.93553 7.41373 2.42929 7.51022 2.94127 7.52907L4.71129 7.59424L3.23662 6.61313C2.14618 5.88764 1.43244 4.64951 1.43113 3.24808C1.43067 2.75724 1.51538 2.29413 1.67161 1.86438C3.98264 4.38861 7.25585 6.0129 10.8921 6.19946L11.54 6.2327L11.4071 5.59769C11.3424 5.28837 11.3046 4.97133 11.3043 4.65916C11.3022 2.43118 13.1026 0.615263 15.3427 0.61316C16.5079 0.612066 17.5589 1.09906 18.2977 1.88654L18.4863 2.08756L18.757 2.03539Z" stroke="#E4B498"/>
</svg>
